<mxfile host="app.diagrams.net" modified="2023-05-16T06:43:27.381Z" agent="Mozilla/5.0 (Windows NT 10.0; Win64; x64; rv:109.0) Gecko/20100101 Firefox/112.0" etag="SNpdHVJn9ybhXHsFzHFl" version="21.2.9" type="device">
  <diagram name="Page-1" id="03018318-947c-dd8e-b7a3-06fadd420f32">
    <mxGraphModel dx="1222" dy="594" grid="1" gridSize="10" guides="1" tooltips="1" connect="1" arrows="1" fold="1" page="1" pageScale="1" pageWidth="1100" pageHeight="850" background="#ffffff" math="0" shadow="0">
      <root>
        <mxCell id="0" />
        <mxCell id="1" parent="0" />
        <mxCell id="677b7b8949515195-1" value="" style="whiteSpace=wrap;html=1;rounded=0;shadow=0;labelBackgroundColor=none;strokeColor=#000000;strokeWidth=1;fillColor=none;fontFamily=Verdana;fontSize=12;fontColor=#000000;align=center;comic=1;" parent="1" vertex="1">
          <mxGeometry x="20" y="20" width="1060" height="670" as="geometry" />
        </mxCell>
        <mxCell id="677b7b8949515195-2" value="&lt;font style=&quot;font-size: 14px;&quot;&gt;Tour Planner&lt;/font&gt;" style="whiteSpace=wrap;html=1;rounded=0;shadow=0;labelBackgroundColor=none;strokeWidth=1;fontFamily=Verdana;fontSize=28;align=center;comic=1;strokeColor=none;fillColor=none;" parent="1" vertex="1">
          <mxGeometry x="10" y="10" width="140" height="50" as="geometry" />
        </mxCell>
        <mxCell id="ZEvSyLwuDxPxKPsx5UvI-1" value="" style="rounded=0;whiteSpace=wrap;html=1;fillColor=none;strokeColor=default;" vertex="1" parent="1">
          <mxGeometry x="20" y="20" width="1060" height="40" as="geometry" />
        </mxCell>
        <mxCell id="ZEvSyLwuDxPxKPsx5UvI-2" value="" style="ellipse;whiteSpace=wrap;html=1;aspect=fixed;" vertex="1" parent="1">
          <mxGeometry x="950" y="25" width="30" height="30" as="geometry" />
        </mxCell>
        <mxCell id="ZEvSyLwuDxPxKPsx5UvI-3" value="" style="ellipse;whiteSpace=wrap;html=1;aspect=fixed;" vertex="1" parent="1">
          <mxGeometry x="990" y="25" width="30" height="30" as="geometry" />
        </mxCell>
        <mxCell id="ZEvSyLwuDxPxKPsx5UvI-4" value="" style="ellipse;whiteSpace=wrap;html=1;aspect=fixed;strokeColor=#007FFF;" vertex="1" parent="1">
          <mxGeometry x="1030" y="25" width="30" height="30" as="geometry" />
        </mxCell>
        <mxCell id="ZEvSyLwuDxPxKPsx5UvI-5" value="&lt;font style=&quot;font-size: 15px;&quot;&gt;File&lt;/font&gt;" style="rounded=0;whiteSpace=wrap;html=1;fillColor=none;" vertex="1" parent="1">
          <mxGeometry x="20" y="60" width="170" height="30" as="geometry" />
        </mxCell>
        <mxCell id="ZEvSyLwuDxPxKPsx5UvI-6" value="&lt;font style=&quot;font-size: 15px;&quot;&gt;Edit&lt;/font&gt;" style="rounded=0;whiteSpace=wrap;html=1;fillColor=none;" vertex="1" parent="1">
          <mxGeometry x="190" y="60" width="170" height="30" as="geometry" />
        </mxCell>
        <mxCell id="ZEvSyLwuDxPxKPsx5UvI-7" value="&lt;font style=&quot;font-size: 15px;&quot;&gt;Options&lt;/font&gt;" style="rounded=0;whiteSpace=wrap;html=1;fillColor=none;" vertex="1" parent="1">
          <mxGeometry x="360" y="60" width="180" height="30" as="geometry" />
        </mxCell>
        <mxCell id="ZEvSyLwuDxPxKPsx5UvI-8" value="" style="rounded=0;whiteSpace=wrap;html=1;fillColor=none;" vertex="1" parent="1">
          <mxGeometry x="540" y="60" width="180" height="30" as="geometry" />
        </mxCell>
        <mxCell id="ZEvSyLwuDxPxKPsx5UvI-9" value="" style="rounded=0;whiteSpace=wrap;html=1;fillColor=none;" vertex="1" parent="1">
          <mxGeometry x="720" y="60" width="180" height="30" as="geometry" />
        </mxCell>
        <mxCell id="ZEvSyLwuDxPxKPsx5UvI-10" value="&lt;font style=&quot;font-size: 15px;&quot;&gt;Help&lt;/font&gt;" style="rounded=0;whiteSpace=wrap;html=1;fillColor=none;" vertex="1" parent="1">
          <mxGeometry x="900" y="60" width="180" height="30" as="geometry" />
        </mxCell>
        <mxCell id="ZEvSyLwuDxPxKPsx5UvI-11" value="&lt;div align=&quot;left&quot;&gt;&lt;font style=&quot;font-size: 17px;&quot; color=&quot;#707070&quot;&gt;Search&lt;/font&gt;&lt;/div&gt;" style="rounded=0;whiteSpace=wrap;html=1;align=left;fillColor=none;" vertex="1" parent="1">
          <mxGeometry x="20" y="90" width="1060" height="40" as="geometry" />
        </mxCell>
        <mxCell id="ZEvSyLwuDxPxKPsx5UvI-15" value="" style="html=1;verticalLabelPosition=bottom;align=center;labelBackgroundColor=#ffffff;verticalAlign=top;strokeWidth=2;strokeColor=#0080F0;shadow=0;dashed=0;shape=mxgraph.ios7.icons.looking_glass;" vertex="1" parent="1">
          <mxGeometry x="1040" y="95" width="30" height="30" as="geometry" />
        </mxCell>
        <mxCell id="ZEvSyLwuDxPxKPsx5UvI-16" value="Stuff aka TODO" style="rounded=0;whiteSpace=wrap;html=1;" vertex="1" parent="1">
          <mxGeometry x="20" y="130" width="1060" height="40" as="geometry" />
        </mxCell>
        <mxCell id="ZEvSyLwuDxPxKPsx5UvI-17" value="" style="verticalLabelPosition=bottom;shadow=0;dashed=0;align=center;html=1;verticalAlign=top;strokeWidth=1;shape=mxgraph.mockup.misc.map;" vertex="1" parent="1">
          <mxGeometry x="390" y="179" width="680" height="301" as="geometry" />
        </mxCell>
        <mxCell id="ZEvSyLwuDxPxKPsx5UvI-18" value="" style="rounded=0;whiteSpace=wrap;html=1;" vertex="1" parent="1">
          <mxGeometry x="20" y="170" width="370" height="520" as="geometry" />
        </mxCell>
        <mxCell id="ZEvSyLwuDxPxKPsx5UvI-19" value="Tour stops aka TODO" style="rounded=1;whiteSpace=wrap;html=1;" vertex="1" parent="1">
          <mxGeometry x="30" y="179" width="350" height="501" as="geometry" />
        </mxCell>
        <mxCell id="ZEvSyLwuDxPxKPsx5UvI-20" value="" style="rounded=0;whiteSpace=wrap;html=1;" vertex="1" parent="1">
          <mxGeometry x="390" y="480" width="680" height="40" as="geometry" />
        </mxCell>
        <mxCell id="ZEvSyLwuDxPxKPsx5UvI-21" value="Assets" style="childLayout=tableLayout;recursiveResize=0;strokeColor=#98bf21;fillColor=#A7C942;shadow=1;" vertex="1" parent="1">
          <mxGeometry x="405" y="530" width="650" height="140" as="geometry" />
        </mxCell>
        <mxCell id="ZEvSyLwuDxPxKPsx5UvI-22" style="shape=tableRow;horizontal=0;startSize=0;swimlaneHead=0;swimlaneBody=0;top=0;left=0;bottom=0;right=0;dropTarget=0;collapsible=0;recursiveResize=0;expand=0;fontStyle=0;strokeColor=inherit;fillColor=#ffffff;" vertex="1" parent="ZEvSyLwuDxPxKPsx5UvI-21">
          <mxGeometry width="650" height="29" as="geometry" />
        </mxCell>
        <mxCell id="ZEvSyLwuDxPxKPsx5UvI-23" value="Date" style="connectable=0;recursiveResize=0;strokeColor=inherit;fillColor=#A7C942;align=center;fontStyle=1;fontColor=#FFFFFF;html=1;" vertex="1" parent="ZEvSyLwuDxPxKPsx5UvI-22">
          <mxGeometry width="216" height="29" as="geometry">
            <mxRectangle width="216" height="29" as="alternateBounds" />
          </mxGeometry>
        </mxCell>
        <mxCell id="ZEvSyLwuDxPxKPsx5UvI-24" value="Duration" style="connectable=0;recursiveResize=0;strokeColor=inherit;fillColor=#A7C942;align=center;fontStyle=1;fontColor=#FFFFFF;html=1;" vertex="1" parent="ZEvSyLwuDxPxKPsx5UvI-22">
          <mxGeometry x="216" width="218" height="29" as="geometry">
            <mxRectangle width="218" height="29" as="alternateBounds" />
          </mxGeometry>
        </mxCell>
        <mxCell id="ZEvSyLwuDxPxKPsx5UvI-25" value="Distance" style="connectable=0;recursiveResize=0;strokeColor=inherit;fillColor=#A7C942;align=center;fontStyle=1;fontColor=#FFFFFF;html=1;" vertex="1" parent="ZEvSyLwuDxPxKPsx5UvI-22">
          <mxGeometry x="434" width="216" height="29" as="geometry">
            <mxRectangle width="216" height="29" as="alternateBounds" />
          </mxGeometry>
        </mxCell>
        <mxCell id="ZEvSyLwuDxPxKPsx5UvI-26" value="" style="shape=tableRow;horizontal=0;startSize=0;swimlaneHead=0;swimlaneBody=0;top=0;left=0;bottom=0;right=0;dropTarget=0;collapsible=0;recursiveResize=0;expand=0;fontStyle=0;strokeColor=inherit;fillColor=#ffffff;" vertex="1" parent="ZEvSyLwuDxPxKPsx5UvI-21">
          <mxGeometry y="29" width="650" height="28" as="geometry" />
        </mxCell>
        <mxCell id="ZEvSyLwuDxPxKPsx5UvI-27" value="Value 1" style="connectable=0;recursiveResize=0;strokeColor=inherit;fillColor=inherit;align=center;whiteSpace=wrap;html=1;" vertex="1" parent="ZEvSyLwuDxPxKPsx5UvI-26">
          <mxGeometry width="216" height="28" as="geometry">
            <mxRectangle width="216" height="28" as="alternateBounds" />
          </mxGeometry>
        </mxCell>
        <mxCell id="ZEvSyLwuDxPxKPsx5UvI-28" value="Value 2" style="connectable=0;recursiveResize=0;strokeColor=inherit;fillColor=inherit;align=center;whiteSpace=wrap;html=1;" vertex="1" parent="ZEvSyLwuDxPxKPsx5UvI-26">
          <mxGeometry x="216" width="218" height="28" as="geometry">
            <mxRectangle width="218" height="28" as="alternateBounds" />
          </mxGeometry>
        </mxCell>
        <mxCell id="ZEvSyLwuDxPxKPsx5UvI-29" value="Value 3" style="connectable=0;recursiveResize=0;strokeColor=inherit;fillColor=inherit;align=center;whiteSpace=wrap;html=1;" vertex="1" parent="ZEvSyLwuDxPxKPsx5UvI-26">
          <mxGeometry x="434" width="216" height="28" as="geometry">
            <mxRectangle width="216" height="28" as="alternateBounds" />
          </mxGeometry>
        </mxCell>
        <mxCell id="ZEvSyLwuDxPxKPsx5UvI-30" value="" style="shape=tableRow;horizontal=0;startSize=0;swimlaneHead=0;swimlaneBody=0;top=0;left=0;bottom=0;right=0;dropTarget=0;collapsible=0;recursiveResize=0;expand=0;fontStyle=1;strokeColor=inherit;fillColor=#EAF2D3;" vertex="1" parent="ZEvSyLwuDxPxKPsx5UvI-21">
          <mxGeometry y="57" width="650" height="27" as="geometry" />
        </mxCell>
        <mxCell id="ZEvSyLwuDxPxKPsx5UvI-31" value="Value 4" style="connectable=0;recursiveResize=0;strokeColor=inherit;fillColor=inherit;whiteSpace=wrap;html=1;" vertex="1" parent="ZEvSyLwuDxPxKPsx5UvI-30">
          <mxGeometry width="216" height="27" as="geometry">
            <mxRectangle width="216" height="27" as="alternateBounds" />
          </mxGeometry>
        </mxCell>
        <mxCell id="ZEvSyLwuDxPxKPsx5UvI-32" value="Value 5" style="connectable=0;recursiveResize=0;strokeColor=inherit;fillColor=inherit;whiteSpace=wrap;html=1;" vertex="1" parent="ZEvSyLwuDxPxKPsx5UvI-30">
          <mxGeometry x="216" width="218" height="27" as="geometry">
            <mxRectangle width="218" height="27" as="alternateBounds" />
          </mxGeometry>
        </mxCell>
        <mxCell id="ZEvSyLwuDxPxKPsx5UvI-33" value="Value 6" style="connectable=0;recursiveResize=0;strokeColor=inherit;fillColor=inherit;whiteSpace=wrap;html=1;" vertex="1" parent="ZEvSyLwuDxPxKPsx5UvI-30">
          <mxGeometry x="434" width="216" height="27" as="geometry">
            <mxRectangle width="216" height="27" as="alternateBounds" />
          </mxGeometry>
        </mxCell>
        <mxCell id="ZEvSyLwuDxPxKPsx5UvI-34" value="" style="shape=tableRow;horizontal=0;startSize=0;swimlaneHead=0;swimlaneBody=0;top=0;left=0;bottom=0;right=0;dropTarget=0;collapsible=0;recursiveResize=0;expand=0;fontStyle=0;strokeColor=inherit;fillColor=#ffffff;" vertex="1" parent="ZEvSyLwuDxPxKPsx5UvI-21">
          <mxGeometry y="84" width="650" height="29" as="geometry" />
        </mxCell>
        <mxCell id="ZEvSyLwuDxPxKPsx5UvI-35" value="Value 7" style="connectable=0;recursiveResize=0;strokeColor=inherit;fillColor=inherit;fontStyle=0;align=center;whiteSpace=wrap;html=1;" vertex="1" parent="ZEvSyLwuDxPxKPsx5UvI-34">
          <mxGeometry width="216" height="29" as="geometry">
            <mxRectangle width="216" height="29" as="alternateBounds" />
          </mxGeometry>
        </mxCell>
        <mxCell id="ZEvSyLwuDxPxKPsx5UvI-36" value="Value 8" style="connectable=0;recursiveResize=0;strokeColor=inherit;fillColor=inherit;fontStyle=0;align=center;whiteSpace=wrap;html=1;" vertex="1" parent="ZEvSyLwuDxPxKPsx5UvI-34">
          <mxGeometry x="216" width="218" height="29" as="geometry">
            <mxRectangle width="218" height="29" as="alternateBounds" />
          </mxGeometry>
        </mxCell>
        <mxCell id="ZEvSyLwuDxPxKPsx5UvI-37" value="Value 9" style="connectable=0;recursiveResize=0;strokeColor=inherit;fillColor=inherit;fontStyle=0;align=center;whiteSpace=wrap;html=1;" vertex="1" parent="ZEvSyLwuDxPxKPsx5UvI-34">
          <mxGeometry x="434" width="216" height="29" as="geometry">
            <mxRectangle width="216" height="29" as="alternateBounds" />
          </mxGeometry>
        </mxCell>
        <mxCell id="ZEvSyLwuDxPxKPsx5UvI-38" value="" style="shape=tableRow;horizontal=0;startSize=0;swimlaneHead=0;swimlaneBody=0;top=0;left=0;bottom=0;right=0;dropTarget=0;collapsible=0;recursiveResize=0;expand=0;fontStyle=1;strokeColor=inherit;fillColor=#EAF2D3;" vertex="1" parent="ZEvSyLwuDxPxKPsx5UvI-21">
          <mxGeometry y="113" width="650" height="27" as="geometry" />
        </mxCell>
        <mxCell id="ZEvSyLwuDxPxKPsx5UvI-39" value="Value 10" style="connectable=0;recursiveResize=0;strokeColor=inherit;fillColor=inherit;whiteSpace=wrap;html=1;" vertex="1" parent="ZEvSyLwuDxPxKPsx5UvI-38">
          <mxGeometry width="216" height="27" as="geometry">
            <mxRectangle width="216" height="27" as="alternateBounds" />
          </mxGeometry>
        </mxCell>
        <mxCell id="ZEvSyLwuDxPxKPsx5UvI-40" value="Value 11" style="connectable=0;recursiveResize=0;strokeColor=inherit;fillColor=inherit;whiteSpace=wrap;html=1;" vertex="1" parent="ZEvSyLwuDxPxKPsx5UvI-38">
          <mxGeometry x="216" width="218" height="27" as="geometry">
            <mxRectangle width="218" height="27" as="alternateBounds" />
          </mxGeometry>
        </mxCell>
        <mxCell id="ZEvSyLwuDxPxKPsx5UvI-41" value="Value 12" style="connectable=0;recursiveResize=0;strokeColor=inherit;fillColor=inherit;whiteSpace=wrap;html=1;" vertex="1" parent="ZEvSyLwuDxPxKPsx5UvI-38">
          <mxGeometry x="434" width="216" height="27" as="geometry">
            <mxRectangle width="216" height="27" as="alternateBounds" />
          </mxGeometry>
        </mxCell>
        <mxCell id="ZEvSyLwuDxPxKPsx5UvI-42" value="&lt;font style=&quot;font-size: 15px;&quot;&gt;Tour Logs&lt;/font&gt;" style="rounded=0;whiteSpace=wrap;html=1;" vertex="1" parent="1">
          <mxGeometry x="390" y="480" width="100" height="30" as="geometry" />
        </mxCell>
        <mxCell id="ZEvSyLwuDxPxKPsx5UvI-43" value="&lt;font style=&quot;font-size: 19px;&quot;&gt;+&lt;/font&gt;" style="rounded=1;whiteSpace=wrap;html=1;" vertex="1" parent="1">
          <mxGeometry x="980" y="480" width="30" height="30" as="geometry" />
        </mxCell>
        <mxCell id="ZEvSyLwuDxPxKPsx5UvI-44" value="&lt;font style=&quot;font-size: 19px;&quot;&gt;-&lt;/font&gt;" style="rounded=1;whiteSpace=wrap;html=1;" vertex="1" parent="1">
          <mxGeometry x="1010" y="480" width="30" height="30" as="geometry" />
        </mxCell>
        <mxCell id="ZEvSyLwuDxPxKPsx5UvI-45" value="&lt;sup&gt;&lt;font style=&quot;font-size: 19px;&quot;&gt;...&lt;/font&gt;&lt;/sup&gt;" style="rounded=1;whiteSpace=wrap;html=1;" vertex="1" parent="1">
          <mxGeometry x="1040" y="480" width="30" height="30" as="geometry" />
        </mxCell>
      </root>
    </mxGraphModel>
  </diagram>
</mxfile>
